<?xml version="1.0" encoding="utf-8"?>
<!-- Generator: Adobe Illustrator 16.0.0, SVG Export Plug-In . SVG Version: 6.00 Build 0)  -->
<!DOCTYPE svg PUBLIC "-//W3C//DTD SVG 1.1//EN" "http://www.w3.org/Graphics/SVG/1.1/DTD/svg11.dtd">
<svg version="1.1" id="图层_1" xmlns="http://www.w3.org/2000/svg" xmlns:xlink="http://www.w3.org/1999/xlink" x="0px" y="0px"
	 width="310px" height="105px" viewBox="0 0 310 105" enable-background="new 0 0 310 105" xml:space="preserve">
<path fill-rule="evenodd" clip-rule="evenodd" fill="#FFFFFF" d="M51.784,8.734c24.197,0,43.821,19.624,43.821,43.821
	s-19.624,43.82-43.821,43.82c-24.198,0-43.821-19.623-43.821-43.82S27.586,8.734,51.784,8.734 M51.784,6.428
	c25.471,0,46.127,20.656,46.127,46.127c0,25.471-20.656,46.127-46.127,46.127c-25.471,0-46.127-20.656-46.127-46.127
	C5.657,27.084,26.313,6.428,51.784,6.428z"/>
<path fill-rule="evenodd" clip-rule="evenodd" fill="#FFFFFF" d="M87.231,57.095l0.083-0.945c0.704-0.397,1.455-0.808,2.25-1.232
	c0.02-0.015,0.093-0.054,0.221-0.112c0.112-0.062,0.186-0.099,0.222-0.113c-0.132-0.1-0.256-0.199-0.372-0.298
	c-0.116-0.08-0.793-0.607-2.03-1.58l0.083-0.946l2.981,2.511l2.206,0.193l-0.071,0.813l-2.207-0.193L87.231,57.095z M87.698,58.041
	l-0.463,1.786l4.567,1.185l-0.205,0.791l-4.567-1.185l-0.47,1.811l-0.663-0.172l1.139-4.388L87.698,58.041z M90.027,66.482
	l-5.037-1.953l0.295-0.761l5.037,1.954L90.027,66.482z M85.524,71.902l0.239-0.83c0.816,0.303,1.432,0.067,1.851-0.706
	c0.354-0.688,0.275-1.19-0.233-1.505c-0.33-0.239-0.773-0.068-1.326,0.511c-0.064,0.046-0.174,0.156-0.33,0.332
	c-0.049,0.053-0.082,0.095-0.099,0.125c-0.777,0.918-1.481,1.167-2.112,0.745c-0.769-0.497-0.889-1.291-0.358-2.382
	c0.571-1.09,1.347-1.49,2.328-1.197l-0.228,0.807c-0.63-0.202-1.121,0.022-1.472,0.671c-0.312,0.61-0.263,1.056,0.144,1.336
	c0.331,0.239,0.786,0.006,1.368-0.698c0.244-0.267,0.432-0.466,0.562-0.595c0.674-0.654,1.316-0.805,1.926-0.456
	c0.863,0.508,0.988,1.365,0.376,2.572C87.547,71.839,86.668,72.263,85.524,71.902z M79.828,74.66l1.482,1.101l0.896-1.207
	c0.503-0.677,0.502-1.192-0.002-1.544c-0.494-0.367-0.987-0.219-1.479,0.444L79.828,74.66z M85.994,74.314l-0.628,0.846
	l-2.789-0.002l-0.738,0.994l1.799,1.335l-0.487,0.657l-4.338-3.221l1.493-2.011c0.751-0.953,1.549-1.158,2.395-0.618
	c0.734,0.545,0.852,1.257,0.354,2.133L85.994,74.314z M81.576,80.088l-2.919,2.933l-3.83-3.811l2.845-2.859l0.486,0.483l-2.25,2.261
	l1.14,1.134l2.12-2.13l0.485,0.483l-2.12,2.13l1.251,1.246l2.324-2.335L81.576,80.088z M75.309,85.68l-0.757,0.527l-4.861-3.2
	l0.736-0.512c2.669,1.867,4.038,2.819,4.107,2.856l0.021-0.015c-0.035-0.082-0.474-1.681-1.316-4.799l0.757-0.527L75.309,85.68z
	 M70.134,88.804L67.662,84l0.726-0.374l2.472,4.805L70.134,88.804z M61.665,86.347l0.923-0.314l4.021,3.309l0.025-0.009
	l-1.426-4.192l0.749-0.254l1.741,5.115l-0.899,0.306l-4.08-3.317l1.435,4.217l-0.749,0.255L61.665,86.347z M55.925,90.614
	l-0.507-3.095l0.833-0.136l0.507,3.095c0.185,1.126,0.751,1.604,1.703,1.431c0.954-0.156,1.338-0.798,1.153-1.926l-0.502-3.069
	l0.833-0.136l0.502,3.069c0.255,1.561-0.38,2.467-1.906,2.717C57.05,92.807,56.178,92.157,55.925,90.614z M45.559,86.95l0.968,0.121
	l2.173,4.732l0.027,0.003l0.546-4.394l0.785,0.097l-0.666,5.362l-0.942-0.117l-2.223-4.765l-0.549,4.42l-0.785-0.097L45.559,86.95z
	 M38.465,88.363l0.826-3.025l0.814,0.222l-0.826,3.026c-0.301,1.101,0.017,1.771,0.954,2.009c0.932,0.255,1.549-0.169,1.85-1.271
	l0.819-3l0.813,0.222l-0.819,3c-0.417,1.526-1.371,2.086-2.863,1.679C38.576,90.825,38.053,89.871,38.465,88.363z M35.406,89.57
	l-0.762-0.362l1.029-2.167l-2.595-1.232l-1.029,2.167l-0.739-0.351l2.318-4.88l0.739,0.351l-0.984,2.071l2.594,1.232l0.984-2.071
	l0.762,0.362L35.406,89.57z M31.365,83.175l-0.793-0.289c0.224-0.699,0.041-1.271-0.548-1.717c-0.895-0.528-1.744-0.269-2.548,0.778
	c-0.701,1.116-0.649,2.003,0.155,2.664c0.706,0.462,1.384,0.374,2.037-0.266l0.539,0.657c-0.893,0.836-1.876,0.887-2.949,0.152
	c-1.269-0.978-1.448-2.208-0.536-3.692c1.077-1.414,2.312-1.708,3.705-0.88C31.334,81.246,31.647,82.111,31.365,83.175z
	 M25.532,80.064l-1.436,1.396c-0.749,0.212-1.552-0.109-2.411-0.965c-1.125-1.283-1.088-2.569,0.11-3.857
	c1.334-1.175,2.602-1.208,3.804-0.098c0.857,0.908,1.08,1.83,0.67,2.769l-0.759-0.365c0.308-0.666,0.167-1.302-0.421-1.907
	c-0.811-0.682-1.706-0.607-2.688,0.224c-0.895,0.969-0.976,1.894-0.243,2.774c0.54,0.529,1.071,0.761,1.593,0.694l0.756-0.736
	l-1.231-1.266l0.491-0.477L25.532,80.064z M20.172,69.791l0.553,0.803l-2.09,4.769l0.016,0.023l3.646-2.513l0.449,0.651
	l-4.448,3.066l-0.539-0.782l2.082-4.828l-3.667,2.528l-0.449-0.651L20.172,69.791z M18.081,66.891l-0.009-0.024
	c-0.167,0.006-0.334,0.012-0.5,0.018c-0.039-0.003-0.792-0.013-2.261-0.024l0.694,1.85c1.099-0.975,1.661-1.477,1.688-1.505
	c0.016-0.006,0.047-0.027,0.09-0.063C17.948,66.988,18.047,66.904,18.081,66.891z M18.913,67.086l-4.299,3.922l-0.315-0.84
	l1.163-1.027l-0.843-2.246l-1.551-0.009l-0.315-0.839l5.818,0.126L18.913,67.086z M12.223,64.057l-0.17-0.826l2.35-0.484
	l-0.579-2.813l-2.35,0.484l-0.165-0.801l5.292-1.09l0.165,0.801l-2.246,0.462l0.58,2.813l2.246-0.462l0.17,0.826L12.223,64.057z
	 M14.872,56.901L14.607,56.1c0.687-0.258,1.023-0.756,1.008-1.495c-0.142-1.03-0.871-1.535-2.191-1.516
	c-1.31,0.142-1.975,0.733-1.993,1.774c0.075,0.84,0.565,1.317,1.472,1.433l-0.181,0.831c-1.21-0.181-1.86-0.921-1.948-2.219
	c-0.02-1.602,0.833-2.505,2.564-2.71c1.776-0.033,2.772,0.754,2.987,2.36C16.367,55.681,15.882,56.463,14.872,56.901z"/>
<path fill-rule="evenodd" clip-rule="evenodd" fill="#FFFFFF" d="M51.784,22.762c16.529,0,29.934,13.342,29.934,29.793
	c0,16.452-13.405,29.793-29.934,29.793S21.85,69.006,21.85,52.555C21.85,36.104,35.255,22.762,51.784,22.762 M51.784,22.021
	c16.94,0,30.679,13.673,30.679,30.534c0,16.861-13.738,30.535-30.679,30.535S21.105,69.416,21.105,52.555
	C21.105,35.694,34.844,22.021,51.784,22.021z"/>
<path fill-rule="evenodd" clip-rule="evenodd" fill="#FFFFFF" d="M37.214,58.013c0,0-2.41-3.886,4.459-12.661
	c0,0,4.733-5.137,4.907-8.774c0,0,1.678,1.424-0.168,5.547c0,0-4.037,8.823-4.008,10.265c0,0-0.202,4.181,2.595,0.98
	c0,0,1.47-1.471,1.441-10.15c0,0,3.518,1.759,0.836,14.792l-5.302-0.034h-2.935H37.79h-0.436h-0.065L37.214,58.013z M48.171,58.013
	c0,0,0.952-5.795,0.577-9.66c0,0-0.519-5.305-0.98-6.833c0,0-0.52-4.931,1.528-8.16s2.019-2.883,2.48-3.518
	c0,0,2.163-2.422,2.364-3.46c0,0,1.269-0.808,0.865,1.644c0,0-1.298,3.028-1.442,3.403c0,0-1.99,3.114-1.96,5.507
	c0,0-0.461,2.422,0.519,8.708c0,0,0.042,0.508,2.632,0.134c0,0,1.396,0.043,1.554,5.525c0,0,0.532,0.533,0.546-0.791
	c0,0,0.417-4.576-0.849-7.108c0,0,2.806,1.289,2.806,6.421c0,0,0.029,4.585-1.845,7.843c0,0-1.717,1.442-2.788-1.617
	c0,0-0.647-2.172-0.719-4.144c0,0-0.403-1.727-1.425-0.043c0,0-0.561,0.058-0.086,6.115l-1.653,0.004h-1.09h-0.578h-0.281h-0.112
	L48.171,58.013z M61.963,48.511c0,0-0.014,4.907-0.604,7.799c0,0,0.567,0.924,2.009-2.276c0,0,0.692-1.586-0.058-3.893l-0.701-1.237
	l0.701,1.237L61.963,48.511z M57.434,57.991c0,0,2.33-3.87,2.646-13.876c0,0,0.145-4.584,0.202-4.902c0,0,0.256-3.709,2.314-4.184
	c0,0-1.507,5.366,1.405,10.643c0,0,2.394,2.479,2.797,6.488c0,0,0.603,3.862-0.333,5.79l-0.034,0.035h-8.755h-0.123L57.434,57.991z
	 M60.623,60.41h0.81v2.869c0,0.498-0.069,0.894-0.209,1.188s-0.39,0.532-0.752,0.715c-0.363,0.185-0.838,0.276-1.427,0.276
	c-0.572,0-1.042-0.08-1.404-0.24c-0.364-0.16-0.624-0.392-0.779-0.696c-0.156-0.304-0.233-0.718-0.233-1.243V60.41h0.808v2.865
	c0,0.431,0.05,0.749,0.148,0.953c0.098,0.204,0.269,0.361,0.508,0.472c0.24,0.111,0.535,0.167,0.882,0.167
	c0.595,0,1.019-0.11,1.272-0.33c0.252-0.218,0.378-0.639,0.378-1.262V60.41z M54.335,63.633l0.809,0.167
	c-0.169,0.539-0.476,0.95-0.915,1.234c-0.441,0.283-0.979,0.424-1.616,0.424c-0.659,0-1.193-0.108-1.606-0.326
	c-0.413-0.219-0.727-0.534-0.942-0.947c-0.215-0.414-0.323-0.857-0.323-1.331c0-0.517,0.121-0.968,0.365-1.353
	c0.243-0.385,0.588-0.677,1.038-0.877c0.448-0.2,0.942-0.299,1.481-0.299c0.611,0,1.125,0.125,1.542,0.379
	c0.417,0.253,0.707,0.608,0.871,1.067l-0.795,0.152c-0.142-0.361-0.347-0.624-0.618-0.79c-0.269-0.165-0.607-0.247-1.017-0.247
	c-0.47,0-0.861,0.091-1.176,0.274c-0.316,0.184-0.538,0.429-0.665,0.737c-0.128,0.308-0.192,0.625-0.192,0.953
	c0,0.423,0.075,0.791,0.226,1.105c0.152,0.315,0.387,0.55,0.707,0.707c0.32,0.156,0.666,0.233,1.038,0.233
	c0.452,0,0.835-0.106,1.149-0.318C54.012,64.366,54.224,64.05,54.335,63.633z M47.697,63.633l0.81,0.167
	c-0.169,0.539-0.475,0.95-0.915,1.234c-0.441,0.283-0.979,0.424-1.616,0.424c-0.659,0-1.194-0.108-1.606-0.326
	c-0.413-0.219-0.727-0.534-0.942-0.947c-0.215-0.414-0.323-0.857-0.323-1.331c0-0.517,0.121-0.968,0.364-1.353
	s0.589-0.677,1.039-0.877c0.448-0.2,0.941-0.299,1.48-0.299c0.612,0,1.125,0.125,1.542,0.379c0.417,0.253,0.707,0.608,0.871,1.067
	l-0.795,0.152c-0.143-0.361-0.347-0.624-0.618-0.79c-0.269-0.165-0.607-0.247-1.017-0.247c-0.47,0-0.86,0.091-1.176,0.274
	c-0.316,0.184-0.538,0.429-0.665,0.737c-0.128,0.308-0.192,0.625-0.192,0.953c0,0.423,0.075,0.791,0.226,1.105
	c0.152,0.315,0.387,0.55,0.707,0.707c0.32,0.156,0.666,0.233,1.038,0.233c0.453,0,0.835-0.106,1.149-0.318
	C47.375,64.366,47.586,64.05,47.697,63.633z M48.525,79.827h6.603h0.23l1.326-10.537l0.339-2.294l7.537-0.086h1.179l0.807-8.535
	h-0.461H37.568h-0.461l0.807,8.535h1.179l7.537,0.086l0.338,2.291l1.326,10.541H48.525z M51.784,23.381
	c16.11,0,29.174,13.064,29.174,29.174S67.894,81.729,51.784,81.729S22.609,68.665,22.609,52.555S35.674,23.381,51.784,23.381z"/>
<path fill-rule="evenodd" clip-rule="evenodd" fill="#FFFFFF" d="M41.299,13.512c-0.163,0.147-0.384,0.349-0.29,0.826
	c0.014-0.009,0.024-0.017,0.034-0.023c0.07-0.048,0.083-0.057,0.245-0.04l0.028,0.003l0.014,0.024l0.002,0.003
	c0.008,0.014,0.015,0.024,0.021,0.052l0.001,0.004v0.002l0.016,0.146l0.001,0.01l-0.002,0.01c-0.024,0.099-0.104,0.174-0.185,0.249
	c-0.064,0.059-0.128,0.119-0.147,0.18c-0.014,0.044-0.013,0.198-0.003,0.367c0.008,0.15,0.022,0.31,0.037,0.42l1.238-1.289
	c0.09-0.1,0.17-0.198,0.248-0.292c0.049-0.06,0.097-0.118,0.145-0.173c-0.018-0.053-0.04-0.096-0.058-0.133
	c-0.083-0.166-0.118-0.234,0.218-0.384c0.129-0.058,0.24-0.101,0.348-0.123c0.112-0.023,0.221-0.021,0.34,0.014l0.023,0.007
	l0.011,0.021c0.211,0.401-0.125,0.712-0.5,1.059c-0.084,0.077-0.17,0.157-0.252,0.24l-1.583,1.651h0
	c-0.199,0.206-0.204,0.261-0.225,0.474c-0.005,0.057-0.012,0.125-0.024,0.212v0.001l-0.241,1.535
	c0.192-0.085,0.517-0.318,0.877-0.602c0.676-0.533,1.469-1.242,1.763-1.52v0c0.17-0.161,0.396-0.288,0.622-0.326
	c0.198-0.032,0.395,0.002,0.559,0.141l0.018,0.016l0.001,0.024c0.016,0.233-0.117,0.355-0.316,0.537
	c-0.082,0.076-0.177,0.162-0.276,0.271c-0.051,0.056-0.104,0.128-0.159,0.203c-0.154,0.208-0.328,0.443-0.591,0.534l-0.009,0.003
	h-0.007c-0.138,0.003-0.179-0.05-0.213-0.096c-0.032-0.043-0.054-0.073-0.574,0.25c-0.262,0.162-0.506,0.299-0.727,0.422
	c-0.698,0.391-1.159,0.648-1.321,1.272c-0.078,0.299-0.191,0.575-0.325,0.833c-0.134,0.256-0.288,0.495-0.45,0.723l-0.029,0.04
	c-0.157,0.222-0.331,0.465-0.533,0.637l-0.003,0.002l-0.004,0.003l-0.617,0.386l-0.005,0.003l-0.005,0.002
	c-0.081,0.03-0.169,0.055-0.245,0.049c-0.092-0.008-0.163-0.056-0.183-0.178c-0.026-0.162,0.034-0.379,0.126-0.583
	c0.115-0.254,0.284-0.492,0.395-0.573c0.168-0.12,0.266-0.149,0.339-0.172c0.132-0.04,0.175-0.053,0.557-0.794
	c0.065-0.127,0.11-0.212,0.146-0.281c0.172-0.328,0.174-0.332,0.367-0.941c0.041-0.129,0.142-0.524,0.192-0.868
	c0.025-0.167,0.038-0.32,0.026-0.419c-0.148,0.086-0.391,0.335-0.625,0.574c-0.231,0.236-0.453,0.463-0.59,0.533
	c-0.012,0.032-0.056,0.051-0.1,0.056c-0.047,0.006-0.098-0.005-0.113-0.037l-0.006,0c-0.01-0.002-0.02-0.004-0.029-0.007
	l-0.023-0.008l-0.01-0.022c-0.104-0.232,0.446-0.762,0.938-1.236c0.338-0.326,0.648-0.625,0.681-0.748
	c0.03-0.11,0.042-0.29,0.041-0.481c-0.001-0.179-0.014-0.367-0.038-0.519c-0.147,0.063-0.286,0.193-0.412,0.312
	c-0.211,0.199-0.392,0.369-0.568,0.204l-0.006-0.006l-0.004-0.008c-0.11-0.201,0.397-0.619,0.597-0.783l0.006-0.005
	c0.026-0.022,0.052-0.042,0.076-0.062c0.112-0.089,0.219-0.173,0.265-0.284c0.027-0.065,0.046-0.168,0.04-0.263
	c-0.004-0.066-0.02-0.126-0.053-0.16c-0.104-0.072-0.379,0.174-0.635,0.403c-0.102,0.091-0.202,0.18-0.291,0.248
	c-0.074,0.056-0.364,0.269-0.605,0.426c-0.145,0.094-0.273,0.17-0.337,0.185l-0.007,0.002l-0.006,0l-0.231-0.005l-0.075-0.002
	l0.021-0.072c0.064-0.212,0.43-0.491,0.711-0.705c0.096-0.073,0.181-0.138,0.237-0.187c0.191-0.166,0.333-0.286,0.452-0.388
	c0.323-0.275,0.491-0.418,0.567-0.533c0.076-0.112,0.059-0.208,0.024-0.406c-0.009-0.049-0.019-0.104-0.028-0.162
	c-0.06-0.38-0.142-0.643-0.2-0.827c-0.021-0.066-0.039-0.123-0.052-0.176c-0.056-0.22-0.022-0.302,0.238-0.369
	c0.13-0.033,0.276-0.022,0.411,0.004c0.129,0.026,0.249,0.068,0.328,0.097l0.026,0.01l0.008,0.027
	c0.066,0.215,0.072,0.382,0.078,0.523c0.005,0.144,0.01,0.257,0.085,0.358c0.059,0,0.117-0.018,0.17-0.034
	c0.136-0.042,0.248-0.077,0.338,0.098C41.538,13.294,41.436,13.388,41.299,13.512 M40.989,20.938
	c0.047-0.384,0.126-1.026,0.225-1.195l0.024-0.043l0.046,0.02c0.203,0.088,0.228,0.168,0.267,0.297
	c0.016,0.049,0.033,0.109,0.07,0.181c0.188-0.079,0.244-0.165,0.326-0.287c0.063-0.097,0.14-0.213,0.292-0.363
	c0.045-0.043,0.088-0.088,0.128-0.13c0.192-0.201,0.341-0.354,0.727-0.441c0.095-0.022,0.182-0.024,0.26-0.009
	c0.235,0.043,0.397,0.23,0.503,0.496c0.1,0.253,0.149,0.58,0.161,0.92c0.019,0.575-0.071,1.187-0.201,1.536l-0.009,0.023
	l-0.024,0.009c-0.246,0.1-0.556,0.213-0.837,0.221c-0.297,0.008-0.558-0.099-0.681-0.445c-0.029-0.079-0.047-0.193-0.055-0.306
	c-0.009-0.124-0.007-0.25,0.008-0.33c0.063-0.354,0.352-0.462,0.631-0.568c0.344-0.129,0.672-0.252,0.399-0.929
	c-0.078-0.071-0.213,0.007-0.367,0.15c-0.267,0.252-0.573,0.702-0.77,0.991c-0.075,0.109-0.136,0.198-0.172,0.243
	c-0.166,0.209-0.178,0.254-0.24,0.471c-0.005,0.021-0.012,0.042-0.025,0.088c-0.072,0.25-0.16,0.384-0.248,0.437
	c-0.063,0.037-0.124,0.038-0.182,0.011c-0.052-0.023-0.1-0.069-0.14-0.131c-0.111-0.167-0.178-0.462-0.144-0.716
	C40.971,21.088,40.979,21.019,40.989,20.938z M43.142,20.979c-0.283,0.164-0.317,0.364-0.314,0.465l0.096-0.041
	c0.122-0.077,0.172-0.19,0.172-0.19h0.001C43.138,21.124,43.144,21.039,43.142,20.979z M38.83,18.646L38.83,18.646z"/>
<path fill-rule="evenodd" clip-rule="evenodd" fill="#FFFFFF" d="M82.54,26.29l0,0.001l0.005,0
	C82.553,26.293,82.542,26.291,82.54,26.29 M82.541,26.291l0-0.001L82.541,26.291z M82.286,28.93c-0.067,0.01-0.134,0.02-0.216,0.092
	c0.251,0.165,0.918-0.024,1.348-0.146c0.096-0.027,0.182-0.052,0.243-0.067c0.525-0.129,0.97-0.314,1.469-0.522l0.187-0.078v0
	l0.036-0.015c0.165-0.068,0.367-0.151,0.422-0.249c0.036-0.064-0.005-0.146-0.201-0.256c-0.078-0.044-0.144-0.083-0.207-0.121h0
	c-0.21-0.125-0.39-0.231-0.643-0.301c-0.155-0.042-0.634-0.106-1.047-0.115c-0.245-0.005-0.464,0.008-0.569,0.056
	c0.167,0.659,0.148,0.677,0.021,0.801c-0.048,0.046-0.114,0.111-0.192,0.259C82.614,28.882,82.448,28.906,82.286,28.93z
	 M82.479,28.087c-0.076,0.043-0.156,0.118-0.225,0.201c-0.08,0.096-0.145,0.204-0.177,0.291c0.047,0.007,0.084-0.001,0.118-0.024
	c0.051-0.036,0.104-0.105,0.175-0.202c0.012-0.016,0.032-0.054,0.052-0.092c0.023-0.046,0.044-0.092,0.048-0.104
	C82.481,28.117,82.484,28.106,82.479,28.087z M82.292,27.973c-0.015-0.012-0.038-0.012-0.042-0.012l-0.006,0.001l-0.002,0.002
	l-0.011,0.004c-0.009,0.004-0.035,0.042-0.035,0.042l-0.001,0.001l-0.003,0.002c-0.015,0.013-0.05,0.066-0.05,0.066l-0.002,0.002
	c-0.001,0.001-0.009-0.006-0.012-0.009v0l0.003,0.003c0.019,0.022,0.021,0.025,0.021,0.025h0.001
	c0.022,0.007,0.031-0.002,0.031-0.002h0c0.021-0.024,0.057-0.062,0.057-0.062c0.029-0.033,0.04-0.065,0.041-0.065l0.009,0.004
	c0.008,0.001,0.016,0.003,0.018,0.003L82.3,27.979L82.292,27.973z M81.765,27.131c-0.138-0.008-0.232,0.014-0.284,0.032l0.101,0.191
	c0.051,0.074,0.166,0.166,0.204,0.195c0.427,0.007,0.66-0.167,0.661-0.167c0.061-0.045,0.101-0.094,0.125-0.128
	c-0.352-0.114-0.804-0.123-0.805-0.123H81.765z M82.487,26.345l-0.003,0.023l0.004-0.008C82.488,26.355,82.487,26.35,82.487,26.345z
	 M81.478,26.615c-0.162,0.017-0.322,0.032-0.476-0.067l-0.052-0.034l0.044-0.043c0.173-0.168,0.293-0.267,0.386-0.342
	c0.215-0.176,0.276-0.226,0.513-0.796h0c0.004-0.011,0.011-0.029,0.019-0.051c0.04-0.11,0.112-0.307,0.204-0.349
	c0.061-0.028,0.12-0.005,0.169,0.103c0.05,0.111,0.113,0.332,0.157,0.579c0.041,0.226,0.065,0.476,0.048,0.684l-0.002,0.024
	l0.005-0.039l0.046,0.008l0-0.001c0,0,0,0,0,0h0c0.006-0.004,0.012-0.007,0.019-0.01c0.051-0.022,0.112-0.011,0.231,0.262
	c0.018,0.041,0.037,0.078,0.062,0.113c0.021,0.031,0.048,0.063,0.082,0.095l0.111-0.015c0.273-0.037,0.553-0.075,0.87-0.21
	c0.049-0.021,0.106-0.042,0.166-0.065c0.125-0.048,0.261-0.1,0.357-0.157c0.109-0.065,0.151-0.14,0.187-0.204
	c0.05-0.088,0.091-0.161,0.235-0.188l0.045-0.009l0.012,0.044c0.021,0.08,0.001,0.247-0.036,0.431
	c-0.047,0.236-0.122,0.506-0.169,0.646c0.149,0.056,0.29,0.07,0.433,0.085c0.191,0.02,0.386,0.04,0.612,0.153
	c0.539,0.269,0.585,0.532,0.458,0.787c-0.069,0.139-0.192,0.271-0.313,0.4l-0.028,0.03c-0.132,0.143-0.521,0.313-0.979,0.475
	c-0.705,0.249-1.576,0.48-1.906,0.549c-0.035,0.008-0.072,0.017-0.111,0.025c-0.119,0.028-0.242,0.057-0.363,0.061
	c-0.082,0.003-0.158-0.007-0.23-0.019l0.038,0.02c0.184,0.093,0.409,0.202,0.474,0.229c0.231,0.1,0.393,0.251,0.453,0.397
	c0.029,0.071,0.035,0.142,0.014,0.205c-0.021,0.064-0.067,0.121-0.143,0.162c-0.155,0.085-0.44,0.111-0.888,0.018l-0.918-0.181
	c-0.054,0.052-0.068,0.079-0.08,0.101h0c-0.017,0.032-0.031,0.057-0.094,0.103c-0.054,0.04-0.081,0.047-0.107,0.055
	c-0.023,0.006-0.046,0.013-0.114,0.068l-0.405,0.363l-0.002,0.003c-0.001,0.01-0.005,0.021-0.01,0.031L80.5,31.146
	c0.014,0.025,0.066,0.045,0.141,0.073c0.121,0.045,0.292,0.108,0.475,0.271l0.017,0.015l0,0.022
	c-0.007,0.513-0.136,0.665-0.302,0.662c-0.137-0.001-0.288-0.118-0.414-0.215c-0.073-0.056-0.135-0.104-0.17-0.113
	c-0.072-0.018-0.115-0.028-0.154-0.038c-0.226-0.057-0.316-0.08-0.372-0.055c-0.037,0.017-0.071,0.059-0.129,0.13
	c-0.079,0.097-0.198,0.244-0.429,0.452c-0.207,0.186-0.217,0.207-0.266,0.303c-0.025,0.05-0.061,0.12-0.135,0.238
	c-0.052,0.084-0.121,0.177-0.19,0.273c-0.082,0.111-0.167,0.226-0.228,0.331h0c-0.025,0.043-0.051,0.094-0.078,0.146
	c-0.08,0.156-0.162,0.318-0.304,0.395l-0.02,0.011l-0.021-0.007c-0.321-0.113-0.327-0.303-0.333-0.497
	c-0.001-0.058-0.004-0.117-0.016-0.17c-0.021-0.093-0.073-0.246-0.135-0.426c-0.186-0.54-0.452-1.313-0.218-1.548l0.044-0.045
	l0.033,0.054c0.11,0.177,0.139,0.317,0.17,0.475c0.044,0.214,0.094,0.463,0.382,0.892c0.01,0.015,0.033,0.047,0.059,0.075
	c0.021,0.022,0.043,0.042,0.057,0.042c0.042-0.001,0.215-0.158,0.421-0.36c0.317-0.312,0.697-0.727,0.813-0.871
	c0.098-0.122,0.101-0.155,0.071-0.179c-0.011-0.009-0.026-0.019-0.044-0.03c-0.01-0.006-0.021-0.013-0.034-0.022
	c-0.016-0.011-0.074-0.036-0.116-0.054c-0.011-0.004-0.022-0.009-0.035-0.015c-0.178-0.078-0.532-0.216-0.857-0.33
	c-0.247-0.086-0.476-0.158-0.591-0.177c-0.029-0.004-0.058-0.007-0.087-0.01c-0.064-0.006-0.129-0.012-0.2-0.038
	c-0.07-0.024-0.111-0.053-0.149-0.08c-0.019-0.013-0.036-0.025-0.058-0.036c0.008,0.044,0.022,0.082,0.037,0.12
	c0.034,0.088,0.069,0.177,0.035,0.334l-0.021,0.094l-0.065-0.071l-0.02-0.021c-0.081-0.088-0.112-0.122-0.127-0.15
	c-0.012-0.023-0.014-0.038-0.016-0.061c-0.002-0.021-0.006-0.052-0.026-0.116c-0.024-0.078-0.064-0.126-0.103-0.173
	c-0.102-0.121-0.194-0.231-0.064-0.709l0.005-0.021l0.019-0.01c0.107-0.058,0.176-0.086,0.25-0.086c0.073,0,0.141,0.028,0.248,0.082
	c0.112,0.057,0.165,0.059,0.229,0.061c0.058,0.002,0.124,0.004,0.235,0.037c0.149,0.043,0.288,0.092,0.426,0.14
	c0.17,0.06,0.338,0.119,0.516,0.165c0.274,0.071,0.497,0.177,0.69,0.268h0c0.287,0.137,0.502,0.238,0.697,0.128
	c0.081-0.046,0.122-0.08,0.142-0.119c0.018-0.035,0.024-0.081,0.029-0.148c-0.029-0.013-0.059-0.024-0.086-0.036
	c-0.181-0.07-0.326-0.126-0.252-0.48l0.002-0.015l0.011-0.011c0.08-0.079,0.142-0.116,0.209-0.131
	c0.066-0.014,0.13-0.004,0.22,0.009c0.53,0.082,0.692,0.21,0.82,0.311c0.079,0.062,0.143,0.112,0.287,0.13l0.067,0.008l0,0
	c0.377,0.046,0.983,0.122,1.271-0.006c-0.117-0.367-0.679-0.529-1.065-0.641c-0.073-0.021-0.14-0.04-0.197-0.059l-1.411-0.357
	l-2.154-0.241c-0.104-0.004-0.211-0.028-0.314-0.076c-0.095-0.044-0.186-0.107-0.266-0.192c-0.162-0.172-0.147-0.303-0.041-0.403
	c0.231-0.216,0.967-0.238,1.06-0.241h0h0c0.052-0.001,0.104-0.003,0.153-0.005c0.359-0.013,0.539-0.02,1.021,0.137
	c0.105,0.034,0.248,0.089,0.41,0.152c0.599,0.232,1.477,0.573,1.766,0.344c-0.022-0.017-0.044-0.031-0.067-0.045
	c-0.062-0.04-0.122-0.08-0.183-0.166c-0.049-0.071-0.058-0.125-0.068-0.189c-0.005-0.035-0.011-0.073-0.025-0.117
	c-0.039-0.028-0.208-0.049-0.391-0.071c-0.228-0.028-0.477-0.059-0.578-0.131l-0.066-0.048l0.073-0.037
	c0.137-0.07,0.31-0.094,0.485-0.118v0c0.161-0.022,0.322-0.044,0.449-0.103c-0.005-0.064-0.014-0.127-0.032-0.189
	c-0.019-0.066-0.048-0.132-0.092-0.202c-0.259-0.015-0.809,0.116-1.238,0.218c-0.318,0.076-0.573,0.137-0.626,0.107l-0.007-0.004
	l-0.006-0.006c-0.072-0.081-0.113-0.187-0.123-0.291c-0.01-0.107,0.015-0.214,0.074-0.288c0.038-0.047,0.114-0.102,0.203-0.167
	c0.104-0.075,0.228-0.164,0.316-0.26c0.272-0.292,0.354-0.438,0.421-0.56c0.045-0.08,0.084-0.151,0.165-0.243l0.053-0.062
	l0.031,0.075c0.023,0.056,0.032,0.07,0.035,0.075h0c0.005,0.007,0.007,0.011,0.01,0.021v0.001c0.002,0.012,0,0.018-0.002,0.026l0,0
	c-0.001,0.003-0.004,0.014-0.004,0.077c0.001,0.137-0.074,0.387-0.14,0.606c-0.038,0.125-0.072,0.24-0.086,0.312
	c0.117,0.01,0.454,0.005,0.836-0.006c0.555-0.016,1.198-0.046,1.409-0.065l-0.063-0.398l-0.002-0.016
	c-0.025,0.187-0.09,0.333-0.215,0.389c-0.02,0.009-0.042,0.016-0.064,0.02l0,0c-0.109,0.02-0.192-0.026-0.285-0.077
	c-0.087-0.048-0.186-0.102-0.323-0.095C81.556,26.607,81.517,26.611,81.478,26.615z M78.583,28.217
	c-0.282-0.01-0.702-0.026-0.866,0.091c0.081,0.042,0.218,0.06,0.335,0.075c0.047,0.006,0.091,0.012,0.128,0.018l0.002,0.001
	l2.204,0.509l0.004,0l0.004,0.001c0.123,0.051,0.22,0.077,0.319,0.103c0.065,0.018,0.132,0.036,0.208,0.061l0.001,0l0.969,0.355
	c-0.006-0.005-0.01-0.008-0.012-0.009l0,0l-0.001-0.001l-0.005-0.003l-0.003-0.003c-0.026-0.029-0.041-0.04-0.052-0.05
	c-0.025-0.02-0.039-0.032-0.093-0.113c-0.034-0.051-0.06-0.093-0.081-0.127c-0.041-0.066-0.058-0.094-0.079-0.103
	c-0.017-0.008-0.047-0.01-0.099-0.013c-0.084-0.005-0.218-0.015-0.451-0.058c-0.411-0.077-0.771-0.234-1.114-0.383
	c-0.402-0.175-0.78-0.339-1.178-0.346C78.678,28.221,78.632,28.219,78.583,28.217z"/>
<path fill-rule="evenodd" clip-rule="evenodd" fill="#FFFFFF" d="M25.897,28.199c0.011,0.104,0.022,0.21,0.017,0.324
	c-0.017,0.328,0.026,0.882,0.099,1.421c0.064,0.474,0.151,0.935,0.24,1.216c0.022-0.021,0.034-0.033,0.04-0.046
	s0.012-0.031,0.02-0.062v0c0.013-0.047,0.033-0.12,0.081-0.247c0.167-0.449,0.086-0.475-0.02-0.509
	c-0.138-0.044-0.305-0.099-0.302-0.519c0.001-0.133,0.004-0.262,0.022-0.383c0.019-0.125,0.054-0.242,0.118-0.346l0.001-0.002
	l0.002-0.003l0.452-0.584l0,0c0.153-0.199,0.26-0.288,0.373-0.296c0.115-0.008,0.218,0.065,0.37,0.191l0.018,0.015l0.002,0.023
	c0.017,0.206-0.039,0.47-0.093,0.724c-0.051,0.241-0.101,0.473-0.08,0.618c0.131,0.002,0.266-0.014,0.398-0.03
	c0.343-0.042,0.672-0.083,0.94,0.182l0.023,0.023l-0.009,0.032l-0.199,0.689l-0.014,0.048l-0.049-0.008
	c-0.009-0.001-0.028-0.009-0.058-0.022c-0.193-0.082-0.972-0.413-1.206-0.21c-0.038,0.033-0.101,0.239-0.167,0.5
	c-0.118,0.464-0.241,1.092-0.278,1.289c-0.025,0.132-0.027,0.271-0.03,0.402c-0.001,0.084-0.002,0.166-0.009,0.242l-0.003,0.039
	l-0.038,0.01c-0.115,0.032-0.182,0.044-0.25,0.026c-0.066-0.018-0.122-0.062-0.215-0.142c-0.357-0.308-0.38-0.537-0.414-0.865
	c-0.012-0.119-0.025-0.252-0.058-0.409l0-0.003l-0.26-1.748c-0.125,0.177-0.135,0.41-0.145,0.649
	c-0.007,0.15-0.013,0.303-0.047,0.45c-0.019,0.079-0.045,0.189-0.071,0.298c-0.071,0.292-0.14,0.58-0.192,0.907
	c-0.047,0.292-0.24,0.917-0.508,1.433c-0.187,0.359-0.412,0.667-0.654,0.781l-0.022,0.01l-0.023-0.009
	c-0.201-0.082-0.343-0.213-0.442-0.382c-0.097-0.166-0.151-0.367-0.179-0.591c-0.024-0.196,0.025-0.257,0.113-0.367
	c0.031-0.039,0.068-0.085,0.109-0.15c0.081-0.128,0.113-0.207,0.149-0.297v0c0.021-0.05,0.042-0.104,0.074-0.171l0.747-1.967
	c0.238-0.636-0.009-1.122-0.379-1.849c-0.093-0.183-0.194-0.38-0.297-0.602c-0.125-0.265-0.239-0.524-0.351-0.776
	c-0.531-1.201-0.996-2.253-2.131-3.049c-0.329-0.23-0.494-0.45-0.529-0.605c-0.022-0.099,0.004-0.177,0.071-0.225
	c0.06-0.042,0.153-0.057,0.271-0.034c0.294,0.058,0.785,0.352,1.37,1.024c0.156,0.179,0.382,0.528,0.613,0.914
	c0.311,0.52,0.631,1.109,0.794,1.439c0.146,0.292,0.262,0.544,0.38,0.802c0.068,0.147,0.137,0.296,0.211,0.455
	c0.142,0.3,0.209,0.55,0.275,0.794c0.04,0.148,0.079,0.294,0.133,0.446c0.075-0.11,0.143-0.292,0.202-0.497
	c0.113-0.393,0.191-0.869,0.221-1.123c0.01-0.082,0.028-0.16,0.073-0.233c0.046-0.073,0.118-0.138,0.234-0.193
	c0.221-0.104,0.343-0.042,0.408,0.098c0.075,0.16,0.058,0.428,0.045,0.638c-0.005,0.073-0.009,0.139-0.008,0.188
	C25.882,28.058,25.89,28.128,25.897,28.199 M24.409,25.378c-0.002,0.022-0.004,0.051-0.013,0.093
	c0.042,0.029,0.097,0.059,0.157,0.091c0.149,0.08,0.325,0.174,0.433,0.338c0.122,0.185,0.14,0.335,0.092,0.448
	c-0.028,0.067-0.08,0.119-0.146,0.155c-0.062,0.034-0.139,0.055-0.222,0.06c-0.237,0.017-0.537-0.085-0.726-0.316
	c-0.14-0.169-0.106-0.278-0.063-0.42c0.028-0.091,0.061-0.199,0.038-0.357c-0.041-0.272-0.188-0.448-0.295-0.576
	c-0.058-0.07-0.105-0.127-0.126-0.185c-0.044-0.123,0.021-0.215,0.316-0.32c0.291-0.104,0.507-0.103,0.659-0.047
	c0.074,0.027,0.132,0.067,0.178,0.114c0.046,0.047,0.078,0.102,0.098,0.157c0.034,0.095,0.033,0.196,0.003,0.276
	c-0.042,0.114-0.104,0.17-0.186,0.244c-0.03,0.027-0.062,0.056-0.097,0.093C24.413,25.327,24.412,25.337,24.409,25.378z
	 M22.448,23.412l-0.018-0.09l-0.006-0.031l0.023-0.021c0.223-0.202,0.401-0.199,0.641-0.195c0.021,0,0.044,0.001,0.07,0.001l0,0
	h0.05c0.185,0.001,0.436,0.003,0.583,0.038c0.111,0.026,0.268,0.103,0.376,0.21c0.063,0.063,0.111,0.136,0.127,0.218
	c0.018,0.085,0.002,0.176-0.064,0.27c-0.076,0.107-0.221,0.218-0.464,0.327l-0.026,0.011l-0.025-0.014
	c-0.11-0.062-0.178-0.11-0.232-0.149c-0.104-0.074-0.155-0.11-0.417-0.154c-0.149-0.025-0.271-0.05-0.373-0.107
	c-0.106-0.059-0.187-0.15-0.244-0.304l-0.002-0.004L22.448,23.412z M26.901,29.175c-0.329,0.106-0.447,0.493-0.477,0.619
	l0.122,0.061c0.015,0,0.045-0.003,0.045-0.003h0.002l0.099-0.015c0.068-0.136,0.126-0.375,0.133-0.402
	C26.862,29.241,26.889,29.189,26.901,29.175z"/>
<path fill-rule="evenodd" clip-rule="evenodd" fill="#FFFFFF" d="M232.801,43.178c-0.025-0.055-0.041-0.134-0.048-0.176l0.606-5.445
	c0.979-4.156,2.331-7.365,0.571-10.147c-0.72-1.137-1.936-2.724-3.929-2.111c-0.427,1.538,0.353,2.684,0.454,4.212l-1.1,13.774
	c-0.049,3.593-2.216,3.27-4.927,4.868c-4.678,2.756-7.734,0.851-6.763,3.051c1.939,4.387,7.254-2.121,10.816-2.372
	c0.066,1.228-0.589,3.791-1.014,4.918c-0.255,0.677-0.301,0.616-0.468,1.215c-0.599,2.128-1.249,3.503-2.673,4.709
	c-1.673,1.418-5.344,3.042-7.583,3.314c-1.104,0.135-2.654-0.16-3.412,0.274c0.386,0.709,0.542,0.508,1.7,0.494
	c4.192-0.051,7.776-0.319,11.183-2.6c2.178-1.458,3.546-6.675,4.349-9.438c0.216-0.742,0.248-1.002,0.626-1.385
	c1.705,1.428,2.381,8.291,4.398,10.509c1.672,1.839,3.291,1.091,5.29,0.105c1.075-0.53,1.445-0.804,2.314-1.361
	c0.719-0.46,2.073-0.785,1.482-1.61c-1.696-1.218-4.794,1.289-8.232-3.157c-1.416-1.831-0.913-0.597-3.711-4.682
	c-0.485-0.708-0.865-0.955-1.226-1.474c0.437-1.032,0.196-1.441,1.046-2.298c0.571-0.577,5.712-3.491,6.359-3.761
	c1.127-0.47,1.499-0.384,2.037-1.415c1.529-2.553,1.533-1.447,0.116-2.717c-1.024-0.171-1.474,1.431-2.29,1.875
	C237.973,41.058,234.03,43.619,232.801,43.178"/>
<path fill-rule="evenodd" clip-rule="evenodd" fill="#FFFFFF" d="M184.573,28.574c-0.817,0.458-1.934,1.085-1.996,3.163
	c0.065-0.024,0.117-0.045,0.165-0.063c0.337-0.136,0.399-0.16,1.06,0.069l0.114,0.039l0.037,0.115l0.006,0.015
	c0.021,0.067,0.037,0.117,0.037,0.235v0.02v0.006l-0.076,0.625l-0.004,0.041l-0.02,0.039c-0.194,0.387-0.602,0.623-1.008,0.856
	c-0.324,0.186-0.648,0.375-0.785,0.607c-0.102,0.173-0.242,0.813-0.365,1.527c-0.11,0.634-0.203,1.313-0.248,1.788l6.385-4.188
	c0.471-0.331,0.899-0.662,1.313-0.979c0.262-0.201,0.517-0.398,0.768-0.584c-0.024-0.235-0.073-0.437-0.115-0.607
	c-0.188-0.772-0.266-1.09,1.274-1.39c0.592-0.117,1.094-0.193,1.567-0.18c0.486,0.013,0.937,0.124,1.401,0.383l0.091,0.05
	l0.025,0.099c0.497,1.871-1.2,2.845-3.092,3.931c-0.424,0.242-0.858,0.493-1.278,0.759l-8.168,5.367h-0.003
	c-1.022,0.668-1.099,0.891-1.388,1.758c-0.078,0.231-0.171,0.508-0.301,0.858l-0.002,0.006l-2.467,6.16
	c0.88-0.173,2.456-0.832,4.229-1.669c3.323-1.574,7.305-3.771,8.794-4.649v-0.002c0.863-0.508,1.923-0.824,2.899-0.763
	c0.854,0.052,1.644,0.387,2.192,1.12l0.061,0.083l-0.017,0.102c-0.156,0.988-0.826,1.369-1.83,1.935
	c-0.415,0.236-0.893,0.506-1.407,0.865c-0.266,0.186-0.556,0.435-0.858,0.694c-0.839,0.72-1.788,1.535-2.971,1.658l-0.039,0.004
	l-0.032-0.006c-0.577-0.117-0.694-0.381-0.794-0.605c-0.091-0.21-0.153-0.353-2.629,0.497c-1.245,0.426-2.394,0.763-3.432,1.066
	c-3.28,0.96-5.442,1.593-6.714,4.039c-0.609,1.174-1.342,2.212-2.146,3.157c-0.802,0.941-1.674,1.786-2.566,2.582l-0.156,0.136
	c-0.869,0.774-1.822,1.622-2.83,2.145l-0.013,0.004l-0.02,0.009l-2.937,1.019l-0.023,0.006l-0.021,0.004
	c-0.366,0.048-0.757,0.069-1.068-0.03c-0.374-0.121-0.623-0.389-0.591-0.915c0.046-0.701,0.502-1.548,1.079-2.305
	c0.723-0.951,1.652-1.781,2.192-2.008c0.815-0.339,1.25-0.37,1.578-0.392c0.589-0.041,0.778-0.054,3.075-2.776
	c0.394-0.469,0.661-0.781,0.878-1.034c1.031-1.2,1.044-1.217,2.428-3.569c0.294-0.5,1.09-2.05,1.629-3.432
	c0.264-0.672,0.462-1.295,0.51-1.719c-0.698,0.218-1.948,1.022-3.148,1.794c-1.187,0.763-2.328,1.496-2.966,1.659
	c-0.078,0.121-0.279,0.157-0.468,0.136c-0.2-0.021-0.402-0.117-0.435-0.259l-0.025-0.009c-0.039-0.017-0.078-0.037-0.113-0.059
	l-0.09-0.056l-0.02-0.104c-0.21-1.066,2.584-2.748,5.088-4.255c1.719-1.034,3.293-1.983,3.548-2.467
	c0.227-0.431,0.452-1.166,0.627-1.963c0.166-0.746,0.29-1.544,0.335-2.197c-0.673,0.119-1.375,0.53-2.011,0.904
	c-1.07,0.627-1.982,1.161-2.561,0.307l-0.021-0.033l-0.011-0.039c-0.268-0.94,2.247-2.199,3.233-2.689l0.029-0.018
	c0.133-0.065,0.255-0.123,0.377-0.182c0.553-0.266,1.076-0.515,1.373-0.93c0.175-0.246,0.353-0.657,0.417-1.057
	c0.048-0.279,0.039-0.545-0.069-0.718c-0.361-0.398-1.743,0.363-3.029,1.072c-0.513,0.281-1.012,0.558-1.448,0.755
	c-0.361,0.162-1.771,0.771-2.926,1.195c-0.691,0.255-1.302,0.446-1.58,0.448h-0.033l-0.025-0.009l-0.958-0.24l-0.31-0.08
	l0.158-0.277c0.471-0.824,2.259-1.635,3.635-2.259c0.467-0.212,0.884-0.402,1.167-0.551c0.956-0.51,1.659-0.876,2.251-1.185
	c1.606-0.837,2.445-1.273,2.871-1.676c0.424-0.396,0.443-0.809,0.487-1.669c0.009-0.214,0.021-0.452,0.039-0.699
	c0.112-1.643,0.02-2.813-0.046-3.635c-0.023-0.296-0.043-0.547-0.05-0.781c-0.023-0.971,0.197-1.28,1.343-1.31
	c0.575-0.013,1.174,0.171,1.706,0.411c0.515,0.233,0.971,0.519,1.273,0.718l0.1,0.067l0.009,0.119
	c0.071,0.96-0.063,1.663-0.173,2.253c-0.117,0.605-0.206,1.079,0.013,1.574c0.246,0.057,0.506,0.037,0.741,0.02
	c0.605-0.045,1.104-0.082,1.315,0.731C185.777,27.895,185.26,28.187,184.573,28.574 M176.202,59.209
	c0.559-1.556,1.502-4.156,2.074-4.762l0.142-0.155l0.176,0.128c0.761,0.559,0.787,0.916,0.828,1.489
	c0.021,0.222,0.033,0.484,0.121,0.822c0.855-0.148,1.172-0.452,1.63-0.882c0.357-0.344,0.788-0.755,1.563-1.233
	c0.229-0.135,0.451-0.283,0.66-0.417c0.99-0.653,1.758-1.152,3.449-1.145c0.417,0,0.781,0.074,1.091,0.208
	c0.937,0.404,1.435,1.341,1.623,2.546c0.176,1.151,0.067,2.56-0.209,3.987c-0.471,2.412-1.428,4.876-2.303,6.204l-0.061,0.087
	l-0.108,0.014c-1.118,0.182-2.519,0.357-3.697,0.121c-1.246-0.249-2.23-0.943-2.412-2.505c-0.047-0.357-0.014-0.849,0.061-1.327
	c0.081-0.525,0.209-1.051,0.351-1.367c0.6-1.415,1.906-1.59,3.173-1.765c1.556-0.209,3.037-0.411,2.546-3.489
	c-0.256-0.371-0.896-0.175-1.671,0.276c-1.354,0.795-3.058,2.378-4.148,3.395c-0.418,0.384-0.755,0.693-0.95,0.849
	c-0.889,0.714-0.983,0.889-1.448,1.731c-0.04,0.081-0.087,0.162-0.188,0.344c-0.539,0.97-1.03,1.448-1.448,1.583
	c-0.296,0.094-0.553,0.041-0.768-0.128c-0.195-0.148-0.351-0.384-0.458-0.68c-0.303-0.802-0.303-2.095,0.081-3.118
	C175.979,59.815,176.081,59.532,176.202,59.209z M185.126,61.432c-1.334,0.411-1.671,1.212-1.751,1.637l0.438-0.081
	c0.579-0.202,0.896-0.626,0.896-0.626h0.007C184.971,62.031,185.079,61.681,185.126,61.432z M169.392,47.599L169.392,47.599z"/>
<path fill-rule="evenodd" clip-rule="evenodd" fill="#FFFFFF" d="M278.289,26.294l0.008,0.002l0.021-0.014
	C278.346,26.264,278.298,26.292,278.289,26.294 M278.296,26.296l-0.008-0.002h-0.001L278.296,26.296L278.296,26.296z
	 M286.162,36.596c-0.209,0.259-0.416,0.516-0.468,1.051c1.45-0.245,3.208-3.144,4.339-5.008c0.255-0.419,0.479-0.79,0.647-1.046
	c1.452-2.212,2.427-4.353,3.522-6.758l0.409-0.897v-0.001l0.079-0.172c0.364-0.791,0.812-1.762,0.683-2.297
	c-0.084-0.35-0.506-0.507-1.57-0.251c-0.429,0.103-0.794,0.182-1.143,0.257v0c-1.166,0.251-2.166,0.468-3.304,1.059
	c-0.696,0.362-2.626,1.73-4.134,3.073c-0.896,0.797-1.635,1.573-1.851,2.091c2.789,1.805,2.783,1.931,2.74,2.797
	c-0.016,0.326-0.038,0.78,0.177,1.57C287.179,35.331,286.664,35.972,286.162,36.596z M284.052,32.933
	c-0.129,0.409-0.166,0.938-0.136,1.469c0.034,0.61,0.157,1.211,0.333,1.63c0.195-0.131,0.296-0.283,0.34-0.479
	c0.065-0.297,0.021-0.721-0.044-1.307c-0.011-0.098-0.062-0.3-0.12-0.504c-0.07-0.245-0.147-0.479-0.176-0.534
	C284.16,33.037,284.131,32.985,284.052,32.933z M283.002,33.146c-0.093,0.007-0.177,0.082-0.19,0.096l-0.021,0.025v0.018
	l-0.023,0.05c-0.021,0.044,0.014,0.267,0.014,0.268v0.009l-0.002,0.018c-0.011,0.093,0.04,0.404,0.04,0.405l0.002,0.015
	c0.001,0.007-0.055,0.008-0.072,0.009h0.003l0.022,0.003c0.143,0.018,0.16,0.018,0.16,0.018l0.005-0.003
	c0.102-0.048,0.103-0.113,0.103-0.113h0.001c-0.003-0.157-0.003-0.413-0.003-0.414h0.001c-0.003-0.214-0.072-0.365-0.072-0.365
	l0.05-0.017c0.029-0.021,0.066-0.042,0.074-0.045l-0.044,0.021L283.002,33.146z M278.314,31.887
	c-0.522,0.431-0.786,0.826-0.909,1.059l0.997,0.35c0.431,0.095,1.146,0.04,1.376,0.019c1.553-1.391,1.81-2.792,1.811-2.796l0,0
	c0.065-0.364,0.05-0.669,0.021-0.872c-1.639,0.762-3.286,2.23-3.291,2.235L278.314,31.887z M278.285,26.668l0.064,0.09l-0.011-0.043
	C278.32,26.702,278.302,26.688,278.285,26.668z M275.567,30.996c-0.527,0.597-1.048,1.185-1.93,1.339l-0.301,0.053l0.016-0.304
	c0.058-1.178,0.163-1.932,0.243-2.512c0.187-1.344,0.24-1.728-0.809-4.558h0.001c-0.021-0.055-0.057-0.141-0.101-0.245
	c-0.222-0.527-0.621-1.474-0.43-1.928c0.128-0.303,0.413-0.42,0.948-0.194c0.549,0.231,1.512,0.813,2.489,1.549
	c0.896,0.676,1.814,1.488,2.447,2.288l0.071,0.092l-0.108-0.154l0.19-0.124l-0.008-0.002h-0.001h0.001
	c0.009-0.032,0.018-0.064,0.032-0.098c0.11-0.253,0.364-0.413,1.699,0.168c0.197,0.086,0.389,0.156,0.598,0.202
	c0.182,0.04,0.38,0.064,0.61,0.068l0.349-0.425c0.856-1.042,1.731-2.106,2.416-3.646c0.105-0.236,0.236-0.504,0.374-0.784
	c0.288-0.586,0.603-1.228,0.755-1.75c0.173-0.596,0.075-1.001-0.008-1.351c-0.115-0.481-0.21-0.878,0.217-1.457l0.134-0.182
	l0.19,0.119c0.344,0.214,0.827,0.88,1.308,1.661c0.616,1.002,1.244,2.218,1.546,2.878c0.718-0.296,1.271-0.713,1.832-1.135
	c0.75-0.565,1.513-1.139,2.698-1.487c2.824-0.83,3.87-0.041,4.261,1.295c0.215,0.729,0.215,1.612,0.213,2.472v0.2
	c0,0.951-0.826,2.857-1.926,4.957c-1.695,3.235-4.048,6.961-4.996,8.308c-0.1,0.142-0.206,0.299-0.313,0.459
	c-0.333,0.495-0.678,1.005-1.099,1.426c-0.283,0.283-0.59,0.499-0.89,0.697l0.201-0.057c0.97-0.277,2.137-0.639,2.459-0.754
	c1.161-0.412,2.245-0.406,2.942-0.083c0.34,0.158,0.595,0.391,0.733,0.688c0.14,0.299,0.159,0.655,0.027,1.055
	c-0.27,0.821-1.208,1.865-3.121,3.017v0l-3.886,2.407c-0.021,0.366,0.016,0.51,0.046,0.627l-0.001,0
	c0.044,0.172,0.078,0.305,0.004,0.682c-0.063,0.321-0.134,0.438-0.205,0.554c-0.06,0.099-0.121,0.199-0.18,0.619l-0.242,2.653
	l0.005,0.018c0.031,0.04,0.048,0.089,0.065,0.145l0.005,0.014c0.133,0.047,0.384-0.057,0.746-0.208
	c0.584-0.243,1.403-0.583,2.599-0.61l0.11-0.002l0.075,0.083c1.68,1.859,1.724,2.833,1.122,3.377
	c-0.497,0.448-1.424,0.535-2.198,0.606c-0.443,0.041-0.831,0.077-0.985,0.163c-0.316,0.176-0.505,0.279-0.678,0.374
	c-0.997,0.547-1.396,0.766-1.515,1.041v0c-0.077,0.182-0.06,0.45-0.03,0.895c0.04,0.612,0.101,1.532-0.034,3.045
	c-0.121,1.354-0.09,1.463,0.055,1.968c0.076,0.266,0.181,0.633,0.311,1.302c0.092,0.474,0.157,1.036,0.224,1.611
	c0.077,0.671,0.157,1.362,0.285,1.944h-0.001c0.054,0.241,0.131,0.512,0.209,0.784c0.235,0.825,0.479,1.675,0.228,2.426
	l-0.034,0.102l-0.1,0.043c-1.525,0.662-2.177,0.003-2.844-0.671c-0.199-0.202-0.401-0.406-0.62-0.557
	c-0.385-0.265-1.083-0.638-1.902-1.076c-2.458-1.313-5.983-3.196-5.93-4.82l0.01-0.308l0.297,0.082
	c0.983,0.27,1.55,0.675,2.189,1.133c0.868,0.622,1.878,1.346,4.336,1.922c0.084,0.02,0.274,0.063,0.462,0.075
	c0.149,0.01,0.295,0.005,0.343-0.042c0.145-0.142,0.245-1.282,0.309-2.692c0.098-2.169,0.078-4.923,0.013-5.823
	c-0.056-0.764-0.156-0.89-0.344-0.877c-0.068,0.005-0.157,0.021-0.256,0.038c-0.06,0.01-0.121,0.021-0.196,0.033
	c-0.096,0.014-0.383,0.118-0.592,0.194l0,0c-0.056,0.02-0.109,0.04-0.177,0.063c-0.896,0.31-2.626,0.995-4.166,1.667
	c-1.175,0.514-2.232,1.017-2.707,1.333c-0.119,0.08-0.232,0.167-0.346,0.254c-0.249,0.191-0.501,0.385-0.84,0.532
	c-0.334,0.145-0.576,0.179-0.8,0.21c-0.111,0.016-0.217,0.031-0.328,0.063c0.175,0.132,0.354,0.22,0.532,0.306
	c0.418,0.204,0.834,0.405,1.236,1.081l0.241,0.405l-0.469-0.037l-0.143-0.011c-0.582-0.045-0.805-0.063-0.956-0.115
	c-0.12-0.041-0.174-0.087-0.261-0.163c-0.077-0.067-0.193-0.167-0.479-0.332c-0.348-0.199-0.651-0.238-0.942-0.275
	c-0.768-0.097-1.465-0.185-2.592-2.328l-0.049-0.093l0.034-0.099c0.191-0.563,0.345-0.893,0.606-1.136
	c0.262-0.243,0.601-0.371,1.163-0.532c0.589-0.169,0.785-0.338,1.022-0.544c0.214-0.184,0.457-0.394,0.967-0.649
	c0.678-0.34,1.338-0.628,1.992-0.914c0.808-0.353,1.605-0.702,2.393-1.127c1.216-0.657,2.369-1.021,3.363-1.335h0.001
	c1.481-0.467,2.592-0.818,2.919-1.862c0.136-0.433,0.172-0.689,0.115-0.899c-0.051-0.184-0.184-0.367-0.392-0.625
	c-0.148,0.049-0.291,0.106-0.429,0.16c-0.878,0.349-1.587,0.63-2.501-0.882l-0.037-0.062l0.003-0.072
	c0.021-0.549,0.119-0.889,0.313-1.164c0.189-0.27,0.452-0.451,0.819-0.7c2.169-1.472,3.178-1.552,3.971-1.615
	c0.486-0.038,0.883-0.07,1.458-0.486l0.268-0.194h0.002c1.508-1.089,3.927-2.836,4.53-4.249c-1.641-0.923-4.194,0.365-5.948,1.249
	c-0.332,0.167-0.636,0.321-0.903,0.444l-6.24,3.417l-8.519,6.302c-0.383,0.331-0.851,0.602-1.377,0.773
	c-0.486,0.159-1.024,0.233-1.594,0.194c-1.148-0.079-1.534-0.594-1.485-1.305c0.106-1.544,2.673-4.072,2.995-4.39v0l0.001-0.001
	l0.002-0.001c0.181-0.178,0.363-0.36,0.532-0.529c1.244-1.243,1.864-1.863,4.111-2.907c0.491-0.228,1.184-0.503,1.973-0.817
	c2.919-1.16,7.199-2.861,7.468-4.643c-0.134,0.013-0.262,0.036-0.389,0.059c-0.354,0.063-0.703,0.124-1.207,0.015
	c-0.41-0.089-0.622-0.256-0.872-0.453c-0.135-0.106-0.283-0.223-0.479-0.333c-0.23,0.025-0.905,0.514-1.638,1.044
	c-0.909,0.659-1.9,1.377-2.506,1.454l-0.396,0.051l0.137-0.375c0.257-0.708,0.799-1.369,1.345-2.035h0.001
	c0.502-0.612,1.008-1.229,1.265-1.858c-0.231-0.214-0.472-0.407-0.745-0.572c-0.286-0.173-0.611-0.315-1.001-0.418
	c-0.978,0.806-2.512,3.106-3.708,4.9c-0.889,1.332-1.599,2.396-1.886,2.468l-0.04,0.01l-0.042-0.004
	c-0.526-0.05-1.026-0.294-1.404-0.632c-0.394-0.353-0.659-0.814-0.694-1.277c-0.022-0.294,0.067-0.745,0.172-1.272h0.001
	c0.122-0.617,0.268-1.346,0.268-1.983c0.002-1.951-0.191-2.745-0.354-3.409c-0.105-0.435-0.199-0.818-0.222-1.416l-0.015-0.396
	l0.359,0.167c0.271,0.125,0.346,0.144,0.373,0.15l0.001-0.001c0.041,0.009,0.062,0.014,0.106,0.046l0.006,0.004
	c0.048,0.037,0.061,0.06,0.079,0.1h0.001c0.008,0.017,0.031,0.067,0.241,0.288c0.459,0.485,1.022,1.632,1.516,2.637
	c0.282,0.574,0.54,1.1,0.73,1.405c0.451-0.354,1.645-1.494,2.977-2.804c1.933-1.901,4.137-4.149,4.83-4.919l-1.552-1.217
	l-0.064-0.05c0.532,0.752,0.785,1.491,0.524,2.11c-0.041,0.099-0.097,0.194-0.164,0.284v0c-0.327,0.434-0.774,0.547-1.275,0.673
	c-0.474,0.119-1.006,0.253-1.474,0.734C275.824,30.705,275.695,30.851,275.567,30.996z M270.529,46.363
	c-1.045,0.9-2.599,2.241-2.798,3.205c0.43-0.117,0.981-0.513,1.449-0.849c0.188-0.135,0.365-0.262,0.522-0.363l0.01-0.005
	l9.584-5.509l0.018-0.01l0.019-0.007c0.609-0.228,1.044-0.458,1.484-0.691c0.294-0.156,0.591-0.313,0.944-0.474l0.006-0.003
	l4.648-1.952c-0.035,0.003-0.061,0.007-0.071,0.009h-0.001l-0.007,0.001l-0.029,0.004l-0.024-0.001
	c-0.189-0.013-0.28-0.008-0.353-0.003c-0.155,0.01-0.244,0.016-0.709-0.097c-0.29-0.07-0.524-0.135-0.712-0.186
	c-0.365-0.101-0.52-0.143-0.623-0.106c-0.087,0.03-0.201,0.123-0.398,0.282c-0.317,0.258-0.829,0.672-1.807,1.289
	c-1.728,1.09-3.54,1.729-5.265,2.336c-2.021,0.711-3.921,1.381-5.372,2.68C270.881,46.059,270.712,46.204,270.529,46.363z"/>
<path fill-rule="evenodd" clip-rule="evenodd" fill="#FFFFFF" d="M134.914,48.607c-0.147,0.428-0.299,0.866-0.531,1.303
	c-0.668,1.258-1.521,3.516-2.228,5.765c-0.622,1.98-1.13,3.95-1.297,5.219c0.125-0.039,0.192-0.067,0.242-0.105
	c0.048-0.038,0.104-0.102,0.193-0.206v-0.001c0.139-0.161,0.352-0.408,0.772-0.822c1.481-1.456,1.212-1.706,0.86-2.035
	c-0.46-0.43-1.018-0.949-0.23-2.591c0.251-0.522,0.5-1.023,0.794-1.464c0.303-0.456,0.655-0.85,1.101-1.141l0.009-0.005l0.013-0.007
	l2.852-1.465l0,0c0.969-0.5,1.551-0.652,2.011-0.475c0.467,0.18,0.737,0.66,1.1,1.431l0.043,0.092l-0.035,0.095
	c-0.311,0.839-1.018,1.773-1.697,2.671c-0.646,0.853-1.266,1.672-1.452,2.284c0.512,0.25,1.07,0.433,1.62,0.613
	c1.424,0.466,2.789,0.914,3.357,2.447l0.05,0.135l-0.096,0.109l-2.05,2.339l-0.143,0.163l-0.179-0.123
	c-0.032-0.022-0.09-0.086-0.185-0.192c-0.607-0.677-3.059-3.411-4.348-3.046c-0.211,0.06-0.835,0.752-1.579,1.656
	c-1.319,1.603-2.96,3.843-3.468,4.546c-0.343,0.475-0.607,1.013-0.859,1.527c-0.161,0.327-0.317,0.646-0.483,0.932l-0.085,0.146
	l-0.166-0.028c-0.511-0.087-0.795-0.162-1.029-0.357c-0.229-0.191-0.365-0.466-0.584-0.956c-0.836-1.867-0.506-2.807-0.031-4.157
	c0.172-0.49,0.365-1.038,0.523-1.714l0.004-0.015l2.199-7.344c-0.817,0.465-1.285,1.362-1.764,2.282
	c-0.302,0.579-0.608,1.167-1.013,1.682c-0.217,0.277-0.523,0.659-0.827,1.039c-0.816,1.021-1.617,2.021-2.425,3.21
	c-0.72,1.06-2.633,3.163-4.637,4.693c-1.396,1.066-2.848,1.862-4.008,1.864h-0.105l-0.072-0.079c-0.64-0.69-0.955-1.469-1.032-2.314
	c-0.075-0.831,0.081-1.721,0.385-2.651c0.266-0.815,0.573-0.966,1.119-1.234c0.194-0.095,0.423-0.208,0.704-0.388
	c0.552-0.354,0.824-0.606,1.135-0.894h0.001c0.174-0.161,0.359-0.333,0.605-0.536l6.559-6.348c2.107-2.063,2.031-4.423,1.917-7.963
	c-0.028-0.89-0.06-1.853-0.06-2.911c0-1.272,0.028-2.5,0.054-3.696c0.128-5.694,0.24-10.683-2.754-15.905
	c-0.867-1.511-1.112-2.676-0.962-3.35c0.096-0.429,0.341-0.688,0.693-0.752c0.315-0.058,0.706,0.058,1.13,0.368
	c1.05,0.768,2.437,2.827,3.493,6.543c0.282,0.993,0.528,2.778,0.724,4.717c0.263,2.615,0.434,5.519,0.47,7.117
	c0.032,1.416,0.024,2.622,0.016,3.852c-0.005,0.703-0.009,1.414-0.007,2.176c0.005,1.441-0.191,2.546-0.383,3.627
	c-0.117,0.656-0.231,1.302-0.297,1.999c0.497-0.297,1.098-0.883,1.709-1.58c1.167-1.332,2.35-3.059,2.935-4.002
	c0.188-0.303,0.404-0.576,0.718-0.779c0.313-0.202,0.716-0.327,1.273-0.327c1.058,0,1.422,0.466,1.423,1.135
	c0,0.768-0.559,1.789-0.996,2.587c-0.153,0.28-0.291,0.531-0.38,0.728C135.116,48.025,135.016,48.313,134.914,48.607
	 M134.264,34.784c-0.048,0.084-0.108,0.192-0.221,0.342c0.109,0.192,0.272,0.412,0.45,0.649c0.438,0.588,0.955,1.281,1.077,2.125
	c0.138,0.95-0.069,1.576-0.462,1.929c-0.236,0.211-0.532,0.32-0.86,0.341c-0.308,0.019-0.646-0.042-0.983-0.173
	c-0.961-0.372-1.95-1.324-2.27-2.578c-0.237-0.925,0.095-1.291,0.526-1.767c0.279-0.308,0.609-0.671,0.807-1.334
	c0.341-1.142,0.088-2.104-0.096-2.807c-0.1-0.381-0.182-0.693-0.157-0.958c0.054-0.564,0.478-0.806,1.833-0.675
	c1.334,0.128,2.18,0.531,2.673,1.03h0c0.239,0.241,0.397,0.506,0.49,0.775c0.093,0.271,0.12,0.543,0.095,0.8
	c-0.042,0.437-0.233,0.831-0.496,1.09c-0.375,0.371-0.724,0.478-1.177,0.617c-0.166,0.05-0.347,0.106-0.554,0.184
	C134.375,34.589,134.352,34.629,134.264,34.784z M130.187,23.449l0.098-0.387l0.034-0.133l0.131-0.041
	c1.25-0.383,1.943-0.044,2.876,0.412c0.084,0.042,0.173,0.084,0.275,0.134l0-0.001l0.197,0.094c0.722,0.344,1.707,0.814,2.22,1.222
	c0.388,0.308,0.863,0.896,1.091,1.52c0.132,0.36,0.185,0.737,0.1,1.09c-0.088,0.365-0.317,0.694-0.748,0.939
	c-0.496,0.282-1.271,0.452-2.428,0.429l-0.123-0.002l-0.071-0.1c-0.318-0.446-0.495-0.76-0.638-1.012
	c-0.272-0.482-0.406-0.721-1.355-1.375c-0.54-0.372-0.974-0.697-1.269-1.108c-0.307-0.428-0.456-0.933-0.4-1.642l0.002-0.02
	L130.187,23.449z M137.061,54.288c-1.489-0.187-2.662,1.115-3.013,1.556l0.366,0.464c0.058,0.03,0.184,0.072,0.184,0.072l0.01,0.003
	l0.416,0.124c0.516-0.407,1.189-1.24,1.265-1.335l0,0C136.785,54.477,136.987,54.321,137.061,54.288z"/>
<path fill-rule="evenodd" clip-rule="evenodd" fill="#FFFFFF" d="M293.533,80.334l-2.505,4.809v2.8h-0.987v-2.775l-2.441-4.834
	h1.125l1.645,3.37c0.004,0.003,0.064,0.165,0.184,0.487h0.013c0.04-0.138,0.107-0.299,0.203-0.481l1.719-3.375H293.533z
	 M284.916,81.208h-2.195v6.735h-0.987v-6.735h-2.187v-0.874h5.369V81.208z M276.812,81.165h-0.731v5.949h0.731v0.83h-2.446v-0.83
	h0.732v-5.949h-0.732v-0.83h2.446V81.165z M266.676,86.513c0.233,0.205,0.543,0.371,0.935,0.501
	c0.389,0.131,0.759,0.196,1.109,0.196c1.068,0,1.602-0.379,1.602-1.138c0-0.213-0.057-0.404-0.173-0.575
	c-0.114-0.171-0.271-0.32-0.471-0.453c-0.2-0.131-0.575-0.332-1.125-0.604c-0.764-0.379-1.267-0.733-1.508-1.058
	c-0.243-0.327-0.363-0.7-0.363-1.119c0-0.632,0.253-1.132,0.761-1.502c0.508-0.37,1.148-0.555,1.922-0.555
	c0.756,0,1.311,0.09,1.664,0.275v1.07c-0.459-0.317-1.037-0.476-1.738-0.476c-0.466,0-0.845,0.097-1.139,0.293
	c-0.292,0.195-0.439,0.464-0.439,0.812c0,0.308,0.103,0.558,0.306,0.752c0.203,0.193,0.644,0.456,1.321,0.79
	c0.746,0.357,1.269,0.714,1.565,1.071c0.299,0.357,0.448,0.758,0.448,1.204c0,0.667-0.241,1.18-0.729,1.538
	c-0.484,0.357-1.156,0.535-2.019,0.535c-0.3,0-0.651-0.042-1.053-0.125c-0.4-0.083-0.694-0.187-0.877-0.312V86.513z M259.184,81.195
	v2.686h1.158c0.449,0,0.813-0.131,1.094-0.393c0.279-0.263,0.42-0.607,0.42-1.031c0-0.397-0.129-0.706-0.384-0.929
	c-0.255-0.223-0.627-0.334-1.114-0.334H259.184z M263.756,87.943h-1.159l-1.262-2.113c-0.252-0.422-0.483-0.709-0.693-0.861
	c-0.209-0.153-0.459-0.228-0.751-0.228h-0.707v3.202h-0.982v-7.609h2.318c0.739,0,1.319,0.178,1.739,0.535
	c0.419,0.357,0.628,0.857,0.628,1.499c0,1.055-0.563,1.739-1.689,2.052v0.025c0.209,0.088,0.391,0.214,0.543,0.378
	c0.152,0.163,0.349,0.443,0.592,0.84L263.756,87.943z M254.5,87.943h-4.091v-7.609h3.92v0.874h-2.938v2.436h2.721v0.87h-2.721v2.559
	h3.108V87.943z M247.076,80.334l-2.795,7.609h-1.091l-2.741-7.609h1.09l2.049,5.949c0.069,0.196,0.119,0.424,0.153,0.683h0.023
	c0.026-0.227,0.084-0.457,0.172-0.693l2.088-5.939H247.076z M237.836,81.165h-0.73v5.949h0.73v0.83h-2.446v-0.83h0.733v-5.949
	h-0.733v-0.83h2.446V81.165z M231.896,87.943h-1.163l-3.828-5.918c-0.107-0.168-0.194-0.333-0.26-0.496h-0.028
	c0.025,0.169,0.039,0.524,0.039,1.066v5.348h-0.973v-7.609h1.231l3.725,5.816c0.176,0.275,0.281,0.45,0.313,0.525h0.02
	c-0.031-0.216-0.048-0.585-0.048-1.11v-5.231h0.972V87.943z M221.55,84.843c0,2.153-0.977,3.228-2.928,3.228
	c-1.87,0-2.805-1.038-2.805-3.113v-4.623h0.982v4.578c0,1.524,0.639,2.285,1.916,2.285c1.234,0,1.852-0.738,1.852-2.211v-4.651
	h0.982V84.843z M202.042,87.943h-1.163l-3.828-5.918c-0.107-0.168-0.194-0.333-0.26-0.496h-0.028
	c0.024,0.169,0.038,0.524,0.038,1.066v5.348h-0.973v-7.609h1.232l3.724,5.816c0.177,0.275,0.282,0.45,0.313,0.525h0.021
	c-0.031-0.216-0.049-0.585-0.049-1.11v-5.231h0.973V87.943z M191.695,84.843c0,2.153-0.976,3.228-2.928,3.228
	c-1.869,0-2.805-1.038-2.805-3.113v-4.623h0.982v4.578c0,1.524,0.639,2.285,1.917,2.285c1.233,0,1.851-0.738,1.851-2.211v-4.651
	h0.982V84.843z M181.83,87.943h-0.982v-3.429h-3.852v3.429h-0.982v-7.609h0.982v3.307h3.852v-3.307h0.982V87.943z M172.228,87.628
	c-0.561,0.295-1.263,0.442-2.106,0.442c-1.092,0-1.962-0.345-2.614-1.038c-0.651-0.694-0.977-1.61-0.977-2.75
	c0-1.224,0.366-2.209,1.1-2.956c0.734-0.748,1.665-1.12,2.795-1.12c0.728,0,1.328,0.102,1.803,0.308v1.028
	c-0.544-0.302-1.141-0.453-1.793-0.453c-0.849,0-1.539,0.284-2.072,0.847c-0.535,0.565-0.802,1.328-0.802,2.287
	c0,0.911,0.25,1.633,0.748,2.169c0.496,0.535,1.148,0.803,1.955,0.803c0.753,0,1.406-0.171,1.964-0.511V87.628z M163.031,87.422
	c-0.76,0.433-1.617,0.649-2.575,0.649c-1.1,0-1.986-0.347-2.659-1.042c-0.672-0.696-1.009-1.627-1.009-2.789
	c0-1.175,0.372-2.141,1.114-2.899c0.743-0.756,1.697-1.133,2.859-1.133c0.821,0,1.517,0.13,2.087,0.392v1.062
	c-0.608-0.384-1.334-0.575-2.176-0.575c-0.828,0-1.511,0.283-2.048,0.85c-0.538,0.566-0.806,1.313-0.806,2.24
	c0,0.953,0.248,1.695,0.742,2.225c0.495,0.53,1.162,0.796,2.004,0.796c0.58,0,1.073-0.112,1.479-0.335v-2.057h-1.651v-0.87h2.639
	V87.422z M153.051,87.943h-1.163l-3.828-5.918c-0.107-0.168-0.194-0.333-0.26-0.496h-0.028c0.025,0.169,0.039,0.524,0.039,1.066
	v5.348h-0.973v-7.609h1.232l3.724,5.816c0.176,0.275,0.281,0.45,0.313,0.525h0.02c-0.031-0.216-0.048-0.585-0.048-1.11v-5.231h0.972
	V87.943z M141.309,85.001l-1.148-3.164c-0.037-0.101-0.076-0.278-0.117-0.53h-0.025c-0.037,0.23-0.077,0.406-0.123,0.53l-1.14,3.164
	H141.309z M143.475,87.943h-1.084l-0.776-2.083h-3.169l-0.731,2.083h-1.086l2.899-7.609h1.051L143.475,87.943z M133.271,87.943
	h-0.983v-3.429h-3.851v3.429h-0.982v-7.609h0.982v3.307h3.851v-3.307h0.983V87.943z M123.668,87.628
	c-0.56,0.295-1.262,0.442-2.105,0.442c-1.092,0-1.962-0.345-2.614-1.038c-0.652-0.694-0.978-1.61-0.978-2.75
	c0-1.224,0.367-2.209,1.1-2.956c0.734-0.748,1.665-1.12,2.795-1.12c0.728,0,1.328,0.102,1.802,0.308v1.028
	c-0.543-0.302-1.14-0.453-1.792-0.453c-0.849,0-1.539,0.284-2.072,0.847c-0.535,0.565-0.802,1.328-0.802,2.287
	c0,0.911,0.25,1.633,0.748,2.169c0.496,0.535,1.148,0.803,1.955,0.803c0.753,0,1.407-0.171,1.963-0.511V87.628z"/>
<path fill-rule="evenodd" clip-rule="evenodd" fill="#FFFFFF" d="M63.836,17.174c-0.002-0.015-0.001-0.034,0-0.045l0.501-1.245
	c0.504-0.917,1.035-1.585,0.802-2.358c-0.095-0.315-0.277-0.77-0.788-0.756c-0.202,0.335-0.093,0.657-0.17,1.024l-1.165,3.179
	c-0.248,0.845-0.738,0.626-1.483,0.825c-1.285,0.343-1.881-0.308-1.797,0.275c0.169,1.163,1.852-0.023,2.709,0.151
	c-0.065,0.294-0.388,0.856-0.563,1.094c-0.104,0.143-0.111,0.125-0.19,0.256c-0.281,0.463-0.525,0.745-0.94,0.936
	c-0.488,0.225-1.461,0.367-2.008,0.284c-0.27-0.041-0.616-0.212-0.824-0.16c0.044,0.193,0.095,0.156,0.369,0.229
	c0.993,0.264,1.856,0.436,2.811,0.122c0.61-0.201,1.275-1.342,1.647-1.941c0.1-0.161,0.125-0.22,0.239-0.286
	c0.308,0.449,0.017,2.113,0.347,2.77c0.274,0.544,0.706,0.474,1.242,0.373c0.289-0.055,0.394-0.095,0.636-0.169
	c0.2-0.061,0.541-0.049,0.456-0.282c-0.32-0.399-1.216-0.011-1.735-1.287c-0.214-0.525-0.176-0.201-0.568-1.349
	c-0.068-0.199-0.141-0.282-0.192-0.429c0.171-0.215,0.141-0.327,0.398-0.474c0.173-0.099,1.578-0.448,1.749-0.469
	c0.296-0.037,0.379,0.007,0.573-0.2c0.529-0.502,0.458-0.241,0.207-0.634c-0.23-0.108-0.442,0.241-0.664,0.292
	C65.196,17.014,64.097,17.359,63.836,17.174"/>
</svg>
